# xmcd
#
# Track frame offsets:
#	150
#	19629
#	33442
#	51346
#	69436
#	83621
#	103237
#	115992
#	128618
#	140540
#	154084
#	169129
#	183657
#
# Disc length: 2654 seconds
#
# Revision: 1
# Processed by: cddbd v1.5.2PL0 Copyright (c) Steve Scherf et al.
# Submitted via: audiograbber 1.83.01
#
DISCID=ad0a5c0d
DTITLE=Gary Allan - Smoke Rings In The Dark (Deluxe Edition)
DYEAR=2019
DGENRE=Country
TTITLE0=Smoke Rings In The Dark
TTITLE1=Right Where I Need To Be
TTITLE2=Don't Tell Mama
TTITLE3=Lovin' You Against My Will
TTITLE4=Sorry
TTITLE5=Cryin' For Nothin'
TTITLE6=Bourbon Borderline
TTITLE7=Runaway
TTITLE8=Learning To Live With Me
TTITLE9=Cowboy Blues
TTITLE10=I'm The One
TTITLE11=Greenfields
TTITLE12=Long Year
EXTD=
EXTT0=
EXTT1=
EXTT2=
EXTT3=
EXTT4=
EXTT5=
EXTT6=
EXTT7=
EXTT8=
EXTT9=
EXTT10=
EXTT11=
EXTT12=
PLAYORDER=
